<svg width="17" height="160" viewBox="0 0 17 160" fill="none" xmlns="http://www.w3.org/2000/svg">
<path d="M1.73315 152.528C1.73315 153.342 1.79989 153.965 1.93335 154.398C2.06681 154.828 2.34025 155.043 2.75366 155.043C3.16707 155.043 3.43726 154.828 3.56421 154.398C3.69442 153.965 3.75952 153.342 3.75952 152.528C3.75952 151.675 3.69442 151.044 3.56421 150.634C3.43726 150.224 3.16707 150.019 2.75366 150.019C2.34025 150.019 2.06681 150.224 1.93335 150.634C1.79989 151.044 1.73315 151.675 1.73315 152.528ZM2.75366 148.871C3.65535 148.871 4.28687 149.188 4.64819 149.823C5.01278 150.458 5.19507 151.36 5.19507 152.528C5.19507 153.697 5.01278 154.597 4.64819 155.229C4.28687 155.86 3.65535 156.176 2.75366 156.176C1.85197 156.176 1.21883 155.86 0.854248 155.229C0.49292 154.597 0.312256 153.697 0.312256 152.528C0.312256 151.36 0.49292 150.458 0.854248 149.823C1.21883 149.188 1.85197 148.871 2.75366 148.871Z" fill="white"/>
<path d="M0.693115 122.617V121.67C1.13257 121.65 1.44019 121.621 1.61597 121.582C1.89591 121.52 2.12378 121.396 2.29956 121.211C2.42 121.084 2.51115 120.915 2.573 120.703C2.60881 120.576 2.62671 120.482 2.62671 120.42H3.78394V127.5H2.35815V122.617H0.693115ZM7.29956 124.028C7.29956 124.842 7.36629 125.465 7.49976 125.898C7.63322 126.328 7.90666 126.543 8.32007 126.543C8.73348 126.543 9.00366 126.328 9.13062 125.898C9.26082 125.465 9.32593 124.842 9.32593 124.028C9.32593 123.175 9.26082 122.544 9.13062 122.134C9.00366 121.724 8.73348 121.519 8.32007 121.519C7.90666 121.519 7.63322 121.724 7.49976 122.134C7.36629 122.544 7.29956 123.175 7.29956 124.028ZM8.32007 120.371C9.22176 120.371 9.85327 120.688 10.2146 121.323C10.5792 121.958 10.7615 122.86 10.7615 124.028C10.7615 125.197 10.5792 126.097 10.2146 126.729C9.85327 127.36 9.22176 127.676 8.32007 127.676C7.41838 127.676 6.78524 127.36 6.42065 126.729C6.05933 126.097 5.87866 125.197 5.87866 124.028C5.87866 122.86 6.05933 121.958 6.42065 121.323C6.78524 120.688 7.41838 120.371 8.32007 120.371ZM12.866 124.028C12.866 124.842 12.9327 125.465 13.0662 125.898C13.1996 126.328 13.4731 126.543 13.8865 126.543C14.2999 126.543 14.5701 126.328 14.697 125.898C14.8272 125.465 14.8923 124.842 14.8923 124.028C14.8923 123.175 14.8272 122.544 14.697 122.134C14.5701 121.724 14.2999 121.519 13.8865 121.519C13.4731 121.519 13.1996 121.724 13.0662 122.134C12.9327 122.544 12.866 123.175 12.866 124.028ZM13.8865 120.371C14.7882 120.371 15.4197 120.688 15.781 121.323C16.1456 121.958 16.3279 122.86 16.3279 124.028C16.3279 125.197 16.1456 126.097 15.781 126.729C15.4197 127.36 14.7882 127.676 13.8865 127.676C12.9848 127.676 12.3516 127.36 11.9871 126.729C11.6257 126.097 11.4451 125.197 11.4451 124.028C11.4451 122.86 11.6257 121.958 11.9871 121.323C12.3516 120.688 12.9848 120.371 13.8865 120.371Z" fill="white"/>
<path d="M0.312256 98.5C0.325277 97.9922 0.434326 97.5283 0.639404 97.1084C0.837972 96.6364 1.30672 96.1367 2.04565 95.6094C2.68693 95.1504 3.10197 94.8216 3.29077 94.623C3.58049 94.3138 3.72534 93.9753 3.72534 93.6074C3.72534 93.3079 3.64233 93.0589 3.47632 92.8604C3.3103 92.6618 3.07267 92.5625 2.76343 92.5625C2.34025 92.5625 2.05216 92.7204 1.89917 93.0361C1.81128 93.2184 1.7592 93.5081 1.74292 93.9053H0.390381C0.413167 93.3031 0.522217 92.8164 0.717529 92.4453C1.08862 91.7389 1.7478 91.3857 2.69507 91.3857C3.44377 91.3857 4.03947 91.5941 4.48218 92.0107C4.92489 92.4242 5.14624 92.9727 5.14624 93.6562C5.14624 94.1803 4.98999 94.6458 4.67749 95.0527C4.47241 95.3229 4.1355 95.624 3.66675 95.9561L3.11011 96.3516C2.7618 96.599 2.52254 96.778 2.39233 96.8887C2.26538 96.9993 2.15796 97.1279 2.07007 97.2744H5.16089V98.5H0.312256ZM7.29956 95.0283C7.29956 95.8421 7.36629 96.4655 7.49976 96.8984C7.63322 97.3281 7.90666 97.543 8.32007 97.543C8.73348 97.543 9.00366 97.3281 9.13062 96.8984C9.26082 96.4655 9.32593 95.8421 9.32593 95.0283C9.32593 94.1755 9.26082 93.5439 9.13062 93.1338C9.00366 92.7236 8.73348 92.5186 8.32007 92.5186C7.90666 92.5186 7.63322 92.7236 7.49976 93.1338C7.36629 93.5439 7.29956 94.1755 7.29956 95.0283ZM8.32007 91.3711C9.22176 91.3711 9.85327 91.6885 10.2146 92.3232C10.5792 92.958 10.7615 93.8597 10.7615 95.0283C10.7615 96.1969 10.5792 97.097 10.2146 97.7285C9.85327 98.36 9.22176 98.6758 8.32007 98.6758C7.41838 98.6758 6.78524 98.36 6.42065 97.7285C6.05933 97.097 5.87866 96.1969 5.87866 95.0283C5.87866 93.8597 6.05933 92.958 6.42065 92.3232C6.78524 91.6885 7.41838 91.3711 8.32007 91.3711ZM12.866 95.0283C12.866 95.8421 12.9327 96.4655 13.0662 96.8984C13.1996 97.3281 13.4731 97.543 13.8865 97.543C14.2999 97.543 14.5701 97.3281 14.697 96.8984C14.8272 96.4655 14.8923 95.8421 14.8923 95.0283C14.8923 94.1755 14.8272 93.5439 14.697 93.1338C14.5701 92.7236 14.2999 92.5186 13.8865 92.5186C13.4731 92.5186 13.1996 92.7236 13.0662 93.1338C12.9327 93.5439 12.866 94.1755 12.866 95.0283ZM13.8865 91.3711C14.7882 91.3711 15.4197 91.6885 15.781 92.3232C16.1456 92.958 16.3279 93.8597 16.3279 95.0283C16.3279 96.1969 16.1456 97.097 15.781 97.7285C15.4197 98.36 14.7882 98.6758 13.8865 98.6758C12.9848 98.6758 12.3516 98.36 11.9871 97.7285C11.6257 97.097 11.4451 96.1969 11.4451 95.0283C11.4451 93.8597 11.6257 92.958 11.9871 92.3232C12.3516 91.6885 12.9848 91.3711 13.8865 91.3711Z" fill="white"/>
<path d="M1.63062 67.3271C1.63062 67.6104 1.67619 67.8447 1.76733 68.0303C1.9366 68.3721 2.24422 68.543 2.69019 68.543C2.96362 68.543 3.20125 68.4502 3.40308 68.2646C3.60815 68.0758 3.71069 67.8057 3.71069 67.4541C3.71069 66.9886 3.52189 66.6777 3.14429 66.5215C2.92944 66.4336 2.5909 66.3896 2.12866 66.3896V65.3936C2.58114 65.387 2.89689 65.3431 3.07593 65.2617C3.38517 65.125 3.53979 64.8483 3.53979 64.4316C3.53979 64.1615 3.46004 63.9417 3.30054 63.7725C3.14429 63.6032 2.92293 63.5186 2.63647 63.5186C2.3077 63.5186 2.06519 63.6227 1.90894 63.8311C1.75594 64.0394 1.6827 64.3177 1.68921 64.666H0.390381C0.403402 64.3145 0.463623 63.9808 0.571045 63.665C0.684977 63.3883 0.864014 63.1328 1.10815 62.8984C1.29045 62.7324 1.50692 62.6055 1.75757 62.5176C2.00822 62.4297 2.31584 62.3857 2.68042 62.3857C3.3575 62.3857 3.90275 62.5615 4.31616 62.9131C4.73283 63.2614 4.94116 63.7301 4.94116 64.3193C4.94116 64.736 4.81746 65.0876 4.57007 65.374C4.41382 65.5531 4.25106 65.6751 4.08179 65.7402C4.20874 65.7402 4.39103 65.8493 4.62866 66.0674C4.98348 66.3962 5.16089 66.8454 5.16089 67.415C5.16089 68.014 4.95256 68.5413 4.53589 68.9971C4.12248 69.4495 3.50887 69.6758 2.69507 69.6758C1.69246 69.6758 0.99585 69.3486 0.605225 68.6943C0.400146 68.346 0.286214 67.8903 0.263428 67.3271H1.63062ZM7.29956 66.0283C7.29956 66.8421 7.36629 67.4655 7.49976 67.8984C7.63322 68.3281 7.90666 68.543 8.32007 68.543C8.73348 68.543 9.00366 68.3281 9.13062 67.8984C9.26082 67.4655 9.32593 66.8421 9.32593 66.0283C9.32593 65.1755 9.26082 64.5439 9.13062 64.1338C9.00366 63.7236 8.73348 63.5186 8.32007 63.5186C7.90666 63.5186 7.63322 63.7236 7.49976 64.1338C7.36629 64.5439 7.29956 65.1755 7.29956 66.0283ZM8.32007 62.3711C9.22176 62.3711 9.85327 62.6885 10.2146 63.3232C10.5792 63.958 10.7615 64.8597 10.7615 66.0283C10.7615 67.1969 10.5792 68.097 10.2146 68.7285C9.85327 69.36 9.22176 69.6758 8.32007 69.6758C7.41838 69.6758 6.78524 69.36 6.42065 68.7285C6.05933 68.097 5.87866 67.1969 5.87866 66.0283C5.87866 64.8597 6.05933 63.958 6.42065 63.3232C6.78524 62.6885 7.41838 62.3711 8.32007 62.3711ZM12.866 66.0283C12.866 66.8421 12.9327 67.4655 13.0662 67.8984C13.1996 68.3281 13.4731 68.543 13.8865 68.543C14.2999 68.543 14.5701 68.3281 14.697 67.8984C14.8272 67.4655 14.8923 66.8421 14.8923 66.0283C14.8923 65.1755 14.8272 64.5439 14.697 64.1338C14.5701 63.7236 14.2999 63.5186 13.8865 63.5186C13.4731 63.5186 13.1996 63.7236 13.0662 64.1338C12.9327 64.5439 12.866 65.1755 12.866 66.0283ZM13.8865 62.3711C14.7882 62.3711 15.4197 62.6885 15.781 63.3232C16.1456 63.958 16.3279 64.8597 16.3279 66.0283C16.3279 67.1969 16.1456 68.097 15.781 68.7285C15.4197 69.36 14.7882 69.6758 13.8865 69.6758C12.9848 69.6758 12.3516 69.36 11.9871 68.7285C11.6257 68.097 11.4451 67.1969 11.4451 66.0283C11.4451 64.8597 11.6257 63.958 11.9871 63.3232C12.3516 62.6885 12.9848 62.3711 13.8865 62.3711Z" fill="white"/>
<path d="M5.22925 38.9766H4.42847V40.5H3.06616V38.9766H0.263428V37.7607L2.86597 33.4639H4.42847V37.8877H5.22925V38.9766ZM3.06616 37.8877V34.8311L1.2937 37.8877H3.06616ZM7.29956 37.0283C7.29956 37.8421 7.36629 38.4655 7.49976 38.8984C7.63322 39.3281 7.90666 39.543 8.32007 39.543C8.73348 39.543 9.00366 39.3281 9.13062 38.8984C9.26082 38.4655 9.32593 37.8421 9.32593 37.0283C9.32593 36.1755 9.26082 35.5439 9.13062 35.1338C9.00366 34.7236 8.73348 34.5186 8.32007 34.5186C7.90666 34.5186 7.63322 34.7236 7.49976 35.1338C7.36629 35.5439 7.29956 36.1755 7.29956 37.0283ZM8.32007 33.3711C9.22176 33.3711 9.85327 33.6885 10.2146 34.3232C10.5792 34.958 10.7615 35.8597 10.7615 37.0283C10.7615 38.1969 10.5792 39.097 10.2146 39.7285C9.85327 40.36 9.22176 40.6758 8.32007 40.6758C7.41838 40.6758 6.78524 40.36 6.42065 39.7285C6.05933 39.097 5.87866 38.1969 5.87866 37.0283C5.87866 35.8597 6.05933 34.958 6.42065 34.3232C6.78524 33.6885 7.41838 33.3711 8.32007 33.3711ZM12.866 37.0283C12.866 37.8421 12.9327 38.4655 13.0662 38.8984C13.1996 39.3281 13.4731 39.543 13.8865 39.543C14.2999 39.543 14.5701 39.3281 14.697 38.8984C14.8272 38.4655 14.8923 37.8421 14.8923 37.0283C14.8923 36.1755 14.8272 35.5439 14.697 35.1338C14.5701 34.7236 14.2999 34.5186 13.8865 34.5186C13.4731 34.5186 13.1996 34.7236 13.0662 35.1338C12.9327 35.5439 12.866 36.1755 12.866 37.0283ZM13.8865 33.3711C14.7882 33.3711 15.4197 33.6885 15.781 34.3232C16.1456 34.958 16.3279 35.8597 16.3279 37.0283C16.3279 38.1969 16.1456 39.097 15.781 39.7285C15.4197 40.36 14.7882 40.6758 13.8865 40.6758C12.9848 40.6758 12.3516 40.36 11.9871 39.7285C11.6257 39.097 11.4451 38.1969 11.4451 37.0283C11.4451 35.8597 11.6257 34.958 11.9871 34.3232C12.3516 33.6885 12.9848 33.3711 13.8865 33.3711Z" fill="white"/>
<path d="M1.65015 9.60547C1.70549 9.9082 1.81128 10.1426 1.96753 10.3086C2.12378 10.4714 2.35164 10.5527 2.65112 10.5527C2.99618 10.5527 3.25822 10.4323 3.43726 10.1914C3.61955 9.94727 3.71069 9.64128 3.71069 9.27344C3.71069 8.91211 3.62606 8.60775 3.45679 8.36035C3.28752 8.1097 3.02384 7.98438 2.66577 7.98438C2.4965 7.98438 2.35002 8.00553 2.22632 8.04785C2.00822 8.12598 1.84383 8.27083 1.73315 8.48242L0.483154 8.42383L0.981201 4.5127H4.88257V5.69434H1.98706L1.73315 7.24219C1.948 7.10221 2.11564 7.00944 2.23608 6.96387C2.43791 6.889 2.68368 6.85156 2.97339 6.85156C3.55933 6.85156 4.07039 7.0485 4.50659 7.44238C4.94279 7.83626 5.16089 8.40918 5.16089 9.16113C5.16089 9.81543 4.95093 10.3997 4.53101 10.9141C4.11108 11.4284 3.48283 11.6855 2.64624 11.6855C1.97241 11.6855 1.41903 11.5049 0.986084 11.1436C0.553141 10.7822 0.312256 10.2695 0.263428 9.60547H1.65015ZM7.29956 8.02832C7.29956 8.84212 7.36629 9.46549 7.49976 9.89844C7.63322 10.3281 7.90666 10.543 8.32007 10.543C8.73348 10.543 9.00366 10.3281 9.13062 9.89844C9.26082 9.46549 9.32593 8.84212 9.32593 8.02832C9.32593 7.17546 9.26082 6.54395 9.13062 6.13379C9.00366 5.72363 8.73348 5.51855 8.32007 5.51855C7.90666 5.51855 7.63322 5.72363 7.49976 6.13379C7.36629 6.54395 7.29956 7.17546 7.29956 8.02832ZM8.32007 4.37109C9.22176 4.37109 9.85327 4.68848 10.2146 5.32324C10.5792 5.95801 10.7615 6.8597 10.7615 8.02832C10.7615 9.19694 10.5792 10.097 10.2146 10.7285C9.85327 11.36 9.22176 11.6758 8.32007 11.6758C7.41838 11.6758 6.78524 11.36 6.42065 10.7285C6.05933 10.097 5.87866 9.19694 5.87866 8.02832C5.87866 6.8597 6.05933 5.95801 6.42065 5.32324C6.78524 4.68848 7.41838 4.37109 8.32007 4.37109ZM12.866 8.02832C12.866 8.84212 12.9327 9.46549 13.0662 9.89844C13.1996 10.3281 13.4731 10.543 13.8865 10.543C14.2999 10.543 14.5701 10.3281 14.697 9.89844C14.8272 9.46549 14.8923 8.84212 14.8923 8.02832C14.8923 7.17546 14.8272 6.54395 14.697 6.13379C14.5701 5.72363 14.2999 5.51855 13.8865 5.51855C13.4731 5.51855 13.1996 5.72363 13.0662 6.13379C12.9327 6.54395 12.866 7.17546 12.866 8.02832ZM13.8865 4.37109C14.7882 4.37109 15.4197 4.68848 15.781 5.32324C16.1456 5.95801 16.3279 6.8597 16.3279 8.02832C16.3279 9.19694 16.1456 10.097 15.781 10.7285C15.4197 11.36 14.7882 11.6758 13.8865 11.6758C12.9848 11.6758 12.3516 11.36 11.9871 10.7285C11.6257 10.097 11.4451 9.19694 11.4451 8.02832C11.4451 6.8597 11.6257 5.95801 11.9871 5.32324C12.3516 4.68848 12.9848 4.37109 13.8865 4.37109Z" fill="white"/>
</svg>
